<svg width="561" height="355" viewBox="0 0 561 355" fill="none" xmlns="http://www.w3.org/2000/svg">
<rect width="561" height="355" rx="30" fill="url(#paint0_linear_633_260)" fill-opacity="0.97"/>
<mask id="mask0_633_260" style="mask-type:alpha" maskUnits="userSpaceOnUse" x="0" y="0" width="561" height="355">
<rect width="561" height="355" rx="30" fill="#16084C"/>
</mask>
<g mask="url(#mask0_633_260)">
<path d="M46 -7.6472C70.9804 -10.5103 95.6469 -12.1695 120.833 -11.9805C143.823 -11.808 170.37 -12.7378 191.389 -1.59164C206.794 6.57768 218.746 19.5761 224.778 36.075C229.41 48.7448 230.865 62.6058 236.333 75.0195C240.948 85.4957 249.463 97.7273 257.556 105.908C271.295 119.799 293.47 128.079 312.5 130.797C332.672 133.679 353.786 129.97 374 129.408C397.63 128.752 419.469 130.689 440.111 143.131C452.921 150.852 460.977 163.724 472.389 173.353C485.701 184.585 504.445 191.263 520.556 197.131C546.27 206.496 572.506 211.34 599.778 213.464C617.068 214.811 634.861 214.101 652 211.464C662.412 209.862 671.437 207.122 680 201.019C688.068 195.27 696.767 189.403 699 179.353" stroke="#FFF5F5" stroke-width="0.4" stroke-linecap="round"/>
<path d="M79 -25.2991C103.98 -28.1621 128.647 -29.8214 153.833 -29.6324C176.823 -29.4599 203.37 -30.3896 224.389 -19.2435C239.794 -11.0742 251.746 1.92426 257.778 18.4232C262.41 31.0929 263.865 44.954 269.333 57.3676C273.948 67.8438 282.463 80.0754 290.556 88.2565C304.295 102.147 326.47 110.427 345.5 113.145C365.672 116.027 386.786 112.318 407 111.757C430.63 111.1 452.469 113.037 473.111 125.479C485.921 133.2 493.977 146.072 505.389 155.701C518.701 166.933 537.445 173.611 553.556 179.479C579.27 188.844 605.506 193.688 632.778 195.812C650.068 197.159 667.861 196.449 685 193.812C695.412 192.21 704.437 189.47 713 183.368C721.068 177.618 729.767 171.751 732 161.701" stroke="#FFF5F5" stroke-width="0.4" stroke-linecap="round"/>
<path d="M111 -46.2991C135.98 -49.1621 160.647 -50.8214 185.833 -50.6324C208.823 -50.4599 235.37 -51.3896 256.389 -40.2435C271.794 -32.0742 283.746 -19.0757 289.778 -2.57683C294.41 10.0929 295.865 23.954 301.333 36.3676C305.948 46.8438 314.463 59.0754 322.556 67.2565C336.295 81.1471 358.47 89.4268 377.5 92.1454C397.672 95.0271 418.786 91.318 439 90.7565C462.63 90.1001 484.469 92.0367 505.111 104.479C517.921 112.2 525.977 125.072 537.389 134.701C550.701 145.933 569.445 152.611 585.556 158.479C611.27 167.844 637.506 172.688 664.778 174.812C682.068 176.159 699.861 175.449 717 172.812C727.412 171.21 736.437 168.47 745 162.368C753.068 156.618 761.767 150.751 764 140.701" stroke="#FFF5F5" stroke-width="0.4" stroke-linecap="round"/>
<path d="M133 -67.2991C157.98 -70.1621 182.647 -71.8214 207.833 -71.6324C230.823 -71.4599 257.37 -72.3896 278.389 -61.2435C293.794 -53.0742 305.746 -40.0757 311.778 -23.5768C316.41 -10.9071 317.865 2.95398 323.333 15.3676C327.948 25.8438 336.463 38.0754 344.556 46.2565C358.295 60.1471 380.47 68.4268 399.5 71.1454C419.672 74.0271 440.786 70.318 461 69.7565C484.63 69.1001 506.469 71.0367 527.111 83.4787C539.921 91.1996 547.977 104.072 559.389 113.701C572.701 124.933 591.445 131.611 607.556 137.479C633.27 146.844 659.506 151.688 686.778 153.812C704.068 155.159 721.861 154.449 739 151.812C749.412 150.21 758.437 147.47 767 141.368C775.068 135.618 783.767 129.751 786 119.701" stroke="#FFF5F5" stroke-width="0.4" stroke-linecap="round"/>
<path d="M150 -82.6472C174.98 -85.5103 199.647 -87.1695 224.833 -86.9805C247.823 -86.808 274.37 -87.7378 295.389 -76.5916C310.794 -68.4223 322.746 -55.4239 328.778 -38.925C333.41 -26.2552 334.865 -12.3942 340.333 0.0194702C344.948 10.4957 353.463 22.7273 361.556 30.9084C375.295 44.799 397.47 53.0786 416.5 55.7972C436.672 58.6789 457.786 54.9698 478 54.4084C501.63 53.752 523.469 55.6885 544.111 68.1306C556.921 75.8515 564.977 88.7236 576.389 98.3528C589.701 109.585 608.445 116.263 624.556 122.131C650.27 131.496 676.506 136.34 703.778 138.464C721.068 139.811 738.861 139.101 756 136.464C766.412 134.862 775.437 132.122 784 126.019C792.068 120.27 800.767 114.403 803 104.353" stroke="#FFF5F5" stroke-width="0.4" stroke-linecap="round"/>
<path d="M183 -100.299C207.98 -103.162 232.647 -104.821 257.833 -104.632C280.823 -104.46 307.37 -105.39 328.389 -94.2435C343.794 -86.0742 355.746 -73.0757 361.778 -56.5768C366.41 -43.9071 367.865 -30.046 373.333 -17.6324C377.948 -7.1562 386.463 5.07542 394.556 13.2565C408.295 27.1471 430.47 35.4268 449.5 38.1454C469.672 41.0271 490.786 37.318 511 36.7565C534.63 36.1001 556.469 38.0367 577.111 50.4787C589.921 58.1996 597.977 71.0718 609.389 80.7009C622.701 91.9332 641.445 98.6115 657.556 104.479C683.27 113.844 709.506 118.688 736.778 120.812C754.068 122.159 771.861 121.449 789 118.812C799.412 117.21 808.437 114.47 817 108.368C825.068 102.618 833.767 96.7515 836 86.7009" stroke="#FFF5F5" stroke-width="0.4" stroke-linecap="round"/>
<path d="M215 -121.299C239.98 -124.162 264.647 -125.821 289.833 -125.632C312.823 -125.46 339.37 -126.39 360.389 -115.243C375.794 -107.074 387.746 -94.0757 393.778 -77.5768C398.41 -64.9071 399.865 -51.046 405.333 -38.6324C409.948 -28.1562 418.463 -15.9246 426.556 -7.7435C440.295 6.1471 462.47 14.4268 481.5 17.1454C501.672 20.0271 522.786 16.318 543 15.7565C566.63 15.1001 588.469 17.0367 609.111 29.4787C621.921 37.1996 629.977 50.0718 641.389 59.7009C654.701 70.9332 673.445 77.6115 689.556 83.4787C715.27 92.844 741.506 97.6879 768.778 99.8121C786.068 101.159 803.861 100.449 821 97.8121C831.412 96.2103 840.437 93.4698 849 87.3676C857.068 81.618 865.767 75.7515 868 65.7009" stroke="#FFF5F5" stroke-width="0.4" stroke-linecap="round"/>
<path d="M237 -142.299C261.98 -145.162 286.647 -146.821 311.833 -146.632C334.823 -146.46 361.37 -147.39 382.389 -136.243C397.794 -128.074 409.746 -115.076 415.778 -98.5768C420.41 -85.9071 421.865 -72.046 427.333 -59.6324C431.948 -49.1562 440.463 -36.9246 448.556 -28.7435C462.295 -14.8529 484.47 -6.57323 503.5 -3.85461C523.672 -0.972909 544.786 -4.68201 565 -5.2435C588.63 -5.89988 610.469 -3.96334 631.111 8.47873C643.921 16.1996 651.977 29.0718 663.389 38.7009C676.701 49.9332 695.445 56.6115 711.556 62.4787C737.27 71.844 763.506 76.6879 790.778 78.8121C808.068 80.1588 825.861 79.4489 843 76.8121C853.412 75.2103 862.437 72.4698 871 66.3676C879.068 60.618 887.767 54.7515 890 44.7009" stroke="#FFF5F5" stroke-width="0.4" stroke-linecap="round"/>
<path d="M2 260.441H559V325.441C559 340.905 546.464 353.441 531 353.441H30C14.536 353.441 2 340.905 2 325.441V260.441Z" fill="url(#paint1_linear_633_260)"/>
</g>
<defs>
<linearGradient id="paint0_linear_633_260" x1="280.5" y1="0" x2="280.5" y2="355" gradientUnits="userSpaceOnUse">
<stop offset="0.328194" stop-color="#1F9F3B"/>
<stop offset="0.635473" stop-color="#27D76D"/>
<stop offset="0.890686" stop-color="#14EC43" stop-opacity="0"/>
</linearGradient>
<linearGradient id="paint1_linear_633_260" x1="2" y1="265.514" x2="573.15" y2="385.37" gradientUnits="userSpaceOnUse">
<stop stop-color="#161515"/>
<stop offset="0.28514" stop-color="#121212"/>
<stop offset="0.593597" stop-color="#242222"/>
<stop offset="1" stop-color="#353535"/>
</linearGradient>
</defs>
</svg>
