<svg width="70" height="27" viewBox="0 0 70 27" fill="none" xmlns="http://www.w3.org/2000/svg">
<g clip-path="url(#clip0_609_1949)">
<path fill-rule="evenodd" clip-rule="evenodd" d="M10.9269 6.36849C11.7389 6.11534 12.5859 5.98876 13.4399 5.98876C17.2829 5.98876 20.4889 8.53359 21.2169 11.9111L26.6559 10.8786C25.4169 5.13604 19.9709 0.8125 13.4469 0.8125C11.9489 0.8125 10.5139 1.039 9.16992 1.4587L10.9269 6.36849Z" fill="#FFCA05"/>
<path fill-rule="evenodd" clip-rule="evenodd" d="M4.606 23.0164L8.33 19.0993C6.664 17.7269 5.621 15.7284 5.621 13.4966C5.621 11.2649 6.671 9.26637 8.33 7.90069L4.606 3.98352C1.785 6.31517 0 9.71271 0 13.5033C0 17.2872 1.785 20.6914 4.606 23.0164Z" fill="#00A4DF"/>
<path fill-rule="evenodd" clip-rule="evenodd" d="M21.2241 15.0889C20.4891 18.4664 17.2831 21.0113 13.4471 21.0113C12.5931 21.0113 11.7391 20.8847 10.9271 20.6315L9.16309 25.548C10.5071 25.9677 11.9491 26.1942 13.4471 26.1942C19.9711 26.1942 25.4101 21.8773 26.6631 16.1348L21.2241 15.0889V15.0889Z" fill="#EE4123"/>
<path fill-rule="evenodd" clip-rule="evenodd" d="M42.0699 17.667L41.9089 17.5737C41.4609 18.2599 40.7749 18.8195 39.8999 19.1792C38.2409 19.872 36.7009 19.6922 35.5949 18.7662L35.4969 18.9127H35.4899L33.6069 21.6108C34.0759 21.9239 34.5799 22.1837 35.1049 22.3969C37.1909 23.223 39.3189 23.1896 41.4189 22.3103C42.9379 21.6841 44.1279 20.7181 44.9469 19.5056L42.0699 17.667ZM36.1829 11.0118C34.4259 11.7313 33.5229 13.3035 33.7119 15.1488L41.1459 12.091C39.8649 10.6587 38.2059 10.1857 36.1829 11.0118ZM31.2479 19.2325C31.0379 18.8994 30.8489 18.553 30.6809 18.1933C29.8199 16.288 29.7849 14.3227 30.5059 12.4308C31.3039 10.3589 32.8229 8.76673 34.7899 7.96065C37.2609 6.94138 39.9979 7.14124 42.3639 8.48693C43.8689 9.313 44.9329 10.5854 45.7449 12.3908C45.8499 12.6239 45.9409 12.8704 46.0249 13.077L31.2479 19.2325V19.2325ZM51.1979 3.98352V18.9794L53.6409 19.9253L52.2549 23.0164L49.5599 21.9505C48.9579 21.6974 48.5449 21.3177 48.2299 20.8846C47.9289 20.445 47.7119 19.8387 47.7119 19.026V3.98352H51.1979V3.98352ZM57.5189 15.1621C57.5189 16.3879 58.0649 17.5537 59.0309 18.3598L56.5319 21.0312C54.7679 19.5389 53.7669 17.4005 53.7739 15.1621C53.7739 12.9171 54.7819 10.7853 56.5459 9.29968L59.0449 11.9644C58.0719 12.7705 57.5189 13.9363 57.5189 15.1621V15.1621ZM61.9639 19.419C64.1129 19.419 65.9049 17.9668 66.3249 16.0282L69.9999 16.7476C69.2369 20.3184 65.9259 23.0098 61.9639 23.0031C61.0819 23.0031 60.1999 22.8632 59.3599 22.5967L60.5569 19.1992C60.9979 19.3391 61.4669 19.419 61.9639 19.419ZM61.9709 7.32777C65.9329 7.32777 69.2439 10.0258 69.9999 13.6032L66.3249 14.3161C65.9119 12.3375 64.0849 10.9118 61.9709 10.9118C61.4949 10.9118 61.0119 10.9851 60.5639 11.1317L59.3809 7.73414C60.2139 7.46101 61.0889 7.32777 61.9709 7.32777Z" fill="black"/>
</g>
<defs>
<clipPath id="clip0_609_1949">
<rect width="70" height="25.375" fill="white" transform="translate(0 0.8125)"/>
</clipPath>
</defs>
</svg>
