<svg width="43" height="32" viewBox="0 0 43 32" fill="none" xmlns="http://www.w3.org/2000/svg">
<path d="M42.1482 25.5492C42.1482 29.1048 39.2112 32 35.6044 32H0V6.45079C0 2.89524 2.93698 0 6.54379 0H42.1482V25.5492Z" fill="white"/>
<path d="M30.5549 18.9968H33.26C33.3373 18.9968 33.5177 18.9714 33.595 18.9714C34.1102 18.8698 34.5482 18.4127 34.5482 17.7778C34.5482 17.1682 34.1102 16.7111 33.595 16.5841C33.5177 16.5587 33.3631 16.5587 33.26 16.5587H30.5549V18.9968Z" fill="url(#paint0_linear_625_258)"/>
<path d="M32.9507 2.15869C30.3744 2.15869 28.2618 4.21583 28.2618 6.78091V11.5809H34.8829C35.0375 11.5809 35.2178 11.5809 35.3467 11.6063C36.8409 11.6825 37.9487 12.4444 37.9487 13.765C37.9487 14.8063 37.2016 15.6952 35.8104 15.873V15.9238C37.3304 16.0254 38.4897 16.8635 38.4897 18.1587C38.4897 19.5555 37.2016 20.4698 35.5012 20.4698H28.2361V29.8666H35.1148C37.6911 29.8666 39.8037 27.8095 39.8037 25.2444V2.15869H32.9507Z" fill="url(#paint1_linear_625_258)"/>
<path d="M34.2133 14.0699C34.2133 13.4603 33.7753 13.054 33.26 12.9778C33.2085 12.9778 33.0797 12.9524 33.0024 12.9524H30.5549V15.1873H33.0024C33.0797 15.1873 33.2343 15.1873 33.26 15.1619C33.7753 15.0857 34.2133 14.6794 34.2133 14.0699Z" fill="url(#paint2_linear_625_258)"/>
<path d="M7.03347 2.15869C4.45717 2.15869 2.34461 4.21583 2.34461 6.78091V18.1841C3.65852 18.819 5.02396 19.2254 6.3894 19.2254C8.01246 19.2254 8.8884 18.2603 8.8884 16.9396V11.5555H12.9074V16.9142C12.9074 18.9968 11.5935 20.6984 7.13652 20.6984C4.43141 20.6984 2.31885 20.1142 2.31885 20.1142V29.8412H9.19756C11.7739 29.8412 13.8864 27.7841 13.8864 25.219V2.15869H7.03347Z" fill="url(#paint3_linear_625_258)"/>
<path d="M19.9921 2.15869C17.4158 2.15869 15.3032 4.21583 15.3032 6.78091V12.8254C16.4883 11.8349 18.5494 11.2 21.8728 11.3523C23.6504 11.4285 25.5569 11.9111 25.5569 11.9111V13.8666C24.6037 13.3841 23.4701 12.9523 22.0016 12.8508C19.4768 12.673 17.9568 13.892 17.9568 16.0254C17.9568 18.1841 19.4768 19.4031 22.0016 19.2C23.4701 19.0984 24.6037 18.6412 25.5569 18.1841V20.1396C25.5569 20.1396 23.6762 20.6222 21.8728 20.6984C18.5494 20.8508 16.4883 20.2158 15.3032 19.2254V29.892H22.1819C24.7582 29.892 26.8708 27.8349 26.8708 25.2698V2.15869H19.9921Z" fill="url(#paint4_linear_625_258)"/>
<defs>
<linearGradient id="paint0_linear_625_258" x1="28.257" y1="17.7803" x2="39.8356" y2="17.7803" gradientUnits="userSpaceOnUse">
<stop stop-color="#007940"/>
<stop offset="0.2285" stop-color="#00873F"/>
<stop offset="0.7433" stop-color="#40A737"/>
<stop offset="1" stop-color="#5CB531"/>
</linearGradient>
<linearGradient id="paint1_linear_625_258" x1="28.2572" y1="16.0011" x2="39.8353" y2="16.0011" gradientUnits="userSpaceOnUse">
<stop stop-color="#007940"/>
<stop offset="0.2285" stop-color="#00873F"/>
<stop offset="0.7433" stop-color="#40A737"/>
<stop offset="1" stop-color="#5CB531"/>
</linearGradient>
<linearGradient id="paint2_linear_625_258" x1="28.2569" y1="14.066" x2="39.8345" y2="14.066" gradientUnits="userSpaceOnUse">
<stop stop-color="#007940"/>
<stop offset="0.2285" stop-color="#00873F"/>
<stop offset="0.7433" stop-color="#40A737"/>
<stop offset="1" stop-color="#5CB531"/>
</linearGradient>
<linearGradient id="paint3_linear_625_258" x1="2.33875" y1="16.0011" x2="14.0955" y2="16.0011" gradientUnits="userSpaceOnUse">
<stop stop-color="#1F286F"/>
<stop offset="0.4751" stop-color="#004E94"/>
<stop offset="0.8261" stop-color="#0066B1"/>
<stop offset="1" stop-color="#006FBC"/>
</linearGradient>
<linearGradient id="paint4_linear_625_258" x1="15.2363" y1="16.0011" x2="26.6543" y2="16.0011" gradientUnits="userSpaceOnUse">
<stop stop-color="#6C2C2F"/>
<stop offset="0.1735" stop-color="#882730"/>
<stop offset="0.5731" stop-color="#BE1833"/>
<stop offset="0.8585" stop-color="#DC0436"/>
<stop offset="1" stop-color="#E60039"/>
</linearGradient>
</defs>
</svg>
