<svg width="46" height="35" viewBox="0 0 46 35" fill="none" xmlns="http://www.w3.org/2000/svg">
<path d="M45.0879 34.5218V34.6117H45.1737C45.1898 34.612 45.2057 34.608 45.2197 34.6003C45.2253 34.5964 45.2298 34.5912 45.2328 34.5852C45.2358 34.5792 45.2373 34.5725 45.237 34.5658C45.2372 34.5593 45.2358 34.5528 45.2328 34.5469C45.2298 34.541 45.2253 34.536 45.2197 34.5323C45.2059 34.5242 45.1899 34.5202 45.1737 34.5209H45.0879V34.5218ZM45.1746 34.4581C45.2114 34.4559 45.2478 34.4662 45.2777 34.4874C45.2896 34.4969 45.2991 34.5091 45.3054 34.523C45.3117 34.5368 45.3145 34.5519 45.3138 34.567C45.3143 34.58 45.312 34.5929 45.307 34.605C45.302 34.6171 45.2944 34.628 45.2848 34.6369C45.2618 34.6565 45.2329 34.6683 45.2025 34.6704L45.3174 34.7986H45.2289L45.1231 34.6713H45.0889V34.7986H45.0148V34.4583H45.1758L45.1746 34.4581ZM45.1516 34.916C45.1905 34.9164 45.229 34.9087 45.2646 34.8935C45.2989 34.8791 45.3301 34.8584 45.3565 34.8326C45.383 34.8068 45.4042 34.7763 45.4189 34.7426C45.449 34.6713 45.449 34.5913 45.4189 34.52C45.404 34.4864 45.3829 34.4559 45.3565 34.43C45.3301 34.4042 45.2989 34.3835 45.2646 34.369C45.2287 34.3547 45.1903 34.3475 45.1516 34.3479C45.1123 34.3476 45.0732 34.3547 45.0367 34.369C45.0016 34.3832 44.9696 34.4039 44.9426 34.43C44.9019 34.4708 44.8744 34.5224 44.8635 34.5784C44.8526 34.6344 44.8587 34.6923 44.8812 34.7449C44.8952 34.7786 44.9161 34.8092 44.9426 34.8348C44.9696 34.8609 45.0016 34.8816 45.0367 34.8958C45.073 34.911 45.1121 34.9186 45.1516 34.9183M45.1516 34.266C45.2527 34.2659 45.3498 34.3047 45.4219 34.374C45.4566 34.4073 45.4843 34.4469 45.5033 34.4907C45.5229 34.5357 45.5331 34.5841 45.5331 34.633C45.5331 34.6819 45.5229 34.7303 45.5033 34.7752C45.4838 34.8188 45.4562 34.8584 45.4219 34.892C45.3866 34.9251 45.3455 34.9517 45.3007 34.9707C45.2535 34.9903 45.2028 35.0002 45.1516 34.9999C45.0998 35.0003 45.0485 34.9903 45.0008 34.9707C44.9554 34.9522 44.914 34.9255 44.8787 34.892C44.8443 34.8572 44.8171 34.8162 44.7984 34.7714C44.7787 34.7265 44.7686 34.6781 44.7686 34.6292C44.7686 34.5803 44.7787 34.5319 44.7984 34.4869C44.8174 34.4431 44.8451 34.4034 44.8798 34.3702C44.9146 34.3361 44.9562 34.3093 45.0019 34.2915C45.0497 34.2718 45.101 34.2619 45.1528 34.2622M9.93845 32.9519C9.93845 32.303 10.3731 31.77 11.0835 31.77C11.7623 31.77 12.2205 32.2801 12.2205 32.9519C12.2205 33.6237 11.7623 34.1338 11.0835 34.1338C10.3731 34.1338 9.93845 33.6007 9.93845 32.9519M12.9943 32.9519V31.1053H12.1735V31.5552C11.9132 31.2227 11.5183 31.0143 10.9814 31.0143C9.9235 31.0143 9.0933 31.8257 9.0933 32.9528C9.0933 34.0798 9.92304 34.8913 10.9814 34.8913C11.5181 34.8913 11.9132 34.6826 12.1735 34.3504V34.7986H12.9934V32.9519H12.9943ZM40.727 32.9519C40.727 32.303 41.1616 31.77 41.8722 31.77C42.5518 31.77 43.0092 32.2801 43.0092 32.9519C43.0092 33.6237 42.5518 34.1338 41.8722 34.1338C41.1619 34.1338 40.727 33.6007 40.727 32.9519ZM43.7838 32.9519V29.6232H42.9623V31.5552C42.702 31.2227 42.3071 31.0143 41.7701 31.0143C40.7123 31.0143 39.8821 31.8257 39.8821 32.9528C39.8821 34.0798 40.7118 34.8913 41.7701 34.8913C42.3071 34.8913 42.702 34.6826 42.9623 34.3504V34.7986H43.7838V32.9519ZM23.1811 31.7319C23.71 31.7319 24.0497 32.0563 24.1364 32.6273H22.178C22.2656 32.0943 22.5965 31.7319 23.1813 31.7319M23.1977 31.0122C22.0915 31.0122 21.3177 31.7994 21.3177 32.9508C21.3177 34.1246 22.1226 34.8893 23.2526 34.8893C23.8211 34.8893 24.3418 34.7505 24.7999 34.372L24.3977 33.7771C24.0812 34.0245 23.6783 34.1633 23.2995 34.1633C22.7706 34.1633 22.2891 33.9237 22.1706 33.2591H24.9733C24.9813 33.1592 24.9896 33.0585 24.9896 32.9505C24.9813 31.7996 24.2537 31.012 23.1972 31.012M33.1067 32.9505C33.1067 32.3017 33.5413 31.7686 34.2517 31.7686C34.9306 31.7686 35.3887 32.2787 35.3887 32.9505C35.3887 33.6223 34.9306 34.1324 34.2517 34.1324C33.5413 34.1324 33.1064 33.5994 33.1064 32.9505M36.1623 32.9505V31.1053H35.342V31.5552C35.0807 31.2227 34.6868 31.0143 34.1498 31.0143C33.0919 31.0143 32.2618 31.8257 32.2618 32.9528C32.2618 34.0798 33.0915 34.8913 34.1498 34.8913C34.6868 34.8913 35.0807 34.6826 35.342 34.3504V34.7986H36.1625V32.9519L36.1623 32.9505ZM28.4716 32.9505C28.4716 34.0704 29.2687 34.889 30.4852 34.889C31.0537 34.889 31.4325 34.7653 31.8421 34.4489L31.4479 33.8C31.1397 34.0166 30.8162 34.1324 30.459 34.1324C29.8038 34.1246 29.322 33.6613 29.322 32.9505C29.322 32.2398 29.8038 31.7767 30.459 31.7686C30.8152 31.7686 31.1388 31.8844 31.4479 32.101L31.8421 31.4522C31.4318 31.1357 31.053 31.012 30.4852 31.012C29.2687 31.012 28.4716 31.8305 28.4716 32.9505M39.0526 31.012C38.5791 31.012 38.2707 31.2286 38.0575 31.5529V31.1053H37.2441V34.7966H38.0658V32.7274C38.0658 32.1165 38.3341 31.7772 38.8707 31.7772C39.0464 31.7747 39.2208 31.8062 39.384 31.87L39.6369 31.1134C39.4553 31.0435 39.2184 31.0127 39.0521 31.0127M17.0521 31.3989C16.6573 31.1443 16.1132 31.0127 15.5129 31.0127C14.5567 31.0127 13.9411 31.4609 13.9411 32.1944C13.9411 32.7962 14.3994 33.1676 15.2434 33.2834L15.6312 33.3374C16.0812 33.3992 16.2937 33.5151 16.2937 33.7236C16.2937 34.009 15.9947 34.1718 15.4334 34.1718C14.8649 34.1718 14.4546 33.9941 14.178 33.7856L13.7923 34.4116C14.2424 34.7359 14.8108 34.8906 15.4265 34.8906C16.5165 34.8906 17.1483 34.3886 17.1483 33.6858C17.1483 33.0369 16.6511 32.6975 15.8296 32.5817L15.4428 32.5268C15.0875 32.4818 14.8028 32.4119 14.8028 32.1645C14.8028 31.8946 15.0712 31.7322 15.5215 31.7322C16.0032 31.7322 16.4696 31.9099 16.6982 32.0486L17.0535 31.3998L17.0521 31.3989ZM27.6425 31.0134C27.169 31.0134 26.8606 31.2299 26.6484 31.5543V31.1053H25.835V34.7966H26.6557V32.7274C26.6557 32.1165 26.9241 31.7772 27.4606 31.7772C27.6363 31.7747 27.8108 31.8062 27.9739 31.87L28.2269 31.1134C28.0452 31.0435 27.8084 31.0127 27.6421 31.0127M20.6385 31.1053H19.2964V29.9855H18.4667V31.1053H17.7011V31.839H18.4667V33.5229C18.4667 34.3794 18.8066 34.8895 19.7775 34.8895C20.1338 34.8895 20.544 34.7815 20.8044 34.6041L20.5673 33.9167C20.3223 34.0555 20.054 34.1255 19.8405 34.1255C19.4303 34.1255 19.2964 33.8781 19.2964 33.5076V31.8397H20.6385V31.1053ZM8.36751 34.7975V32.4809C8.36751 31.6085 7.79902 31.0215 6.88259 31.0136C6.4008 31.0057 5.90383 31.1523 5.55588 31.6703C5.29556 31.261 4.88529 31.0136 4.30852 31.0136C3.90538 31.0136 3.51144 31.1294 3.20305 31.5617V31.1053H2.38159V34.7966H3.20949V32.7499C3.20949 32.1091 3.57284 31.7686 4.13397 31.7686C4.679 31.7686 4.95474 32.1161 4.95474 32.7418V34.7962H5.78448V32.7495C5.78448 32.1087 6.16324 31.7682 6.70804 31.7682C7.26848 31.7682 7.53594 32.1157 7.53594 32.7414V34.7957L8.36751 34.7975Z" fill="#231F20"/>
<path d="M45.5561 22.5189V21.9791H45.4123L45.2461 22.3496L45.0807 21.9791H44.9365V22.5189H45.0386V22.1123L45.1941 22.4631H45.2999L45.4553 22.1114V22.5189H45.5565H45.5561ZM44.6442 22.5189V22.0716H44.8282V21.9805H44.3582V22.0716H44.5421V22.5189H44.6433H44.6442Z" fill="#F79410"/>
<path d="M29.2197 24.8338H16.7815V2.97229H29.2199L29.2197 24.8338Z" fill="#FF5F00"/>
<path d="M17.5698 13.9034C17.5698 9.46883 19.6929 5.51847 22.999 2.97268C20.4964 1.04282 17.4012 -0.00459017 14.2143 1.51219e-05C6.36377 1.51219e-05 0 6.22469 0 13.9034C0 21.5822 6.36377 27.8069 14.2143 27.8069C17.4013 27.8115 20.4966 26.7641 22.9992 24.8342C19.6934 22.2889 17.5698 18.3383 17.5698 13.9034Z" fill="#EB001B"/>
<path d="M45.9999 13.9034C45.9999 21.5822 39.6361 27.8069 31.7856 27.8069C28.5982 27.8114 25.5026 26.764 22.9995 24.8342C26.3065 22.2884 28.4296 18.3383 28.4296 13.9034C28.4296 9.46861 26.3065 5.51847 22.9995 2.97268C25.5025 1.04287 28.5981 -0.00450945 31.7853 1.45945e-05C39.6359 1.45945e-05 45.9996 6.22469 45.9996 13.9034" fill="#F79E1B"/>
</svg>
