<svg width="30" height="19" viewBox="0 0 30 19" fill="none" xmlns="http://www.w3.org/2000/svg">
<path d="M29.7105 15.0166V14.6566H29.6167L29.5083 14.9036L29.4004 14.6566H29.3064V15.0166H29.373V14.7454L29.4744 14.9794H29.5434L29.6448 14.7448V15.0166H29.7108H29.7105ZM29.1158 15.0166V14.7183H29.2358V14.6575H28.9292V14.7183H29.0492V15.0166H29.1152H29.1158Z" fill="#F79410"/>
<path d="M19.0562 16.5602H10.9443V1.98206H19.0564L19.0562 16.5602Z" fill="#FF5F00"/>
<path d="M11.4586 9.2714C11.4586 6.31422 12.8432 3.67995 14.9993 1.98231C13.3672 0.695394 11.3486 -0.00306092 9.27019 1.00839e-05C4.15028 1.00839e-05 0 4.15089 0 9.2714C0 14.3919 4.15028 18.5428 9.27019 18.5428C11.3487 18.5459 13.3674 17.8474 14.9995 16.5605C12.8435 14.8632 11.4586 12.2287 11.4586 9.2714Z" fill="#EB001B"/>
<path d="M30.0002 9.2714C30.0002 14.3919 25.8499 18.5428 20.73 18.5428C18.6513 18.5458 16.6324 17.8474 15 16.5605C17.1567 14.8629 18.5414 12.2287 18.5414 9.2714C18.5414 6.31407 17.1567 3.67995 15 1.98231C16.6324 0.695432 18.6512 -0.00300709 20.7299 9.73221e-06C25.8498 9.73221e-06 30.0001 4.15089 30.0001 9.2714" fill="#F79E1B"/>
</svg>
