<svg width="49" height="32" viewBox="0 0 49 32" fill="none" xmlns="http://www.w3.org/2000/svg">
<path d="M48.5275 25.4561V24.8636H48.3744L48.1973 25.2702L48.0212 24.8636H47.8676V25.4561H47.9763V25.0098L48.1419 25.3949H48.2546L48.4202 25.0088V25.4561H48.528H48.5275ZM47.5562 25.4561V24.9651H47.7522V24.8651H47.2515V24.9651H47.4474V25.4561H47.5552H47.5562Z" fill="#F79410"/>
<path d="M31.1256 27.9968H17.8762V4.00232H31.1259L31.1256 27.9968Z" fill="#FF5F00"/>
<path d="M18.7159 16C18.7159 11.1327 20.9775 6.79689 24.4992 4.00272C21.8334 1.88455 18.5363 0.734952 15.1416 0.740007C6.77904 0.740007 0.000244141 7.57202 0.000244141 16C0.000244141 24.4279 6.77904 31.2599 15.1416 31.2599C18.5364 31.265 21.8336 30.1154 24.4994 27.9972C20.978 25.2035 18.7159 20.8675 18.7159 16Z" fill="#EB001B"/>
<path d="M48.9999 16C48.9999 24.4279 42.2211 31.2599 33.8586 31.2599C30.4634 31.265 27.1658 30.1154 24.4995 27.9972C28.0222 25.203 30.2837 20.8675 30.2837 16C30.2837 11.1324 28.0222 6.79689 24.4995 4.00272C27.1658 1.88462 30.4632 0.735041 33.8583 0.740006C42.2209 0.740006 48.9997 7.57202 48.9997 16" fill="#F79E1B"/>
</svg>
