<svg width="40" height="37" viewBox="0 0 40 37" fill="none" xmlns="http://www.w3.org/2000/svg">
<path d="M20 0C8.95667 0 0 8.49278 0 18.9677C0 27.3482 5.73 34.458 13.6783 36.9664C14.6767 37.1419 15 36.5539 15 36.0544V32.5233C9.43667 33.6708 8.27833 30.2851 8.27833 30.2851C7.36833 28.0927 6.05667 27.5095 6.05667 27.5095C4.24167 26.3319 6.195 26.3572 6.195 26.3572C8.20333 26.49 9.26 28.3124 9.26 28.3124C11.0433 31.2113 13.9383 30.3736 15.08 29.8883C15.2583 28.6633 15.7767 27.8256 16.35 27.353C11.9083 26.8709 7.23833 25.2444 7.23833 17.9782C7.23833 15.906 8.02 14.2147 9.29833 12.887C9.09167 12.408 8.40667 10.4781 9.49333 7.86685C9.49333 7.86685 11.1733 7.35788 14.995 9.81104C16.59 9.39058 18.3 9.18036 20 9.17246C21.7 9.18036 23.4117 9.39058 25.01 9.81104C28.8283 7.35788 30.505 7.86685 30.505 7.86685C31.5933 10.4796 30.9083 12.4096 30.7017 12.887C31.985 14.2147 32.76 15.9076 32.76 17.9782C32.76 25.2634 28.0817 26.8677 23.6283 27.3372C24.345 27.9252 25 29.079 25 30.8494V36.0544C25 36.5586 25.32 37.1514 26.335 36.9649C34.2767 34.4532 40 27.3451 40 18.9677C40 8.49278 31.045 0 20 0Z" fill="white"/>
</svg>
