<svg width="40" height="38" viewBox="0 0 40 38" fill="none" xmlns="http://www.w3.org/2000/svg">
<path d="M20 0C14.5662 0 13.8875 0.02375 11.755 0.114C9.625 0.209 8.175 0.52725 6.9 0.9975C5.56492 1.47398 4.35549 2.22171 3.35625 3.18844C2.33777 4.13703 1.55054 5.28619 1.05 6.555C0.555 7.76625 0.21875 9.14375 0.12 11.1673C0.02 13.1943 0 13.8391 0 19C0 24.1621 0.025 24.8069 0.12 26.8328C0.22 28.8551 0.555 30.2337 1.05 31.445C1.55199 32.7131 2.33902 33.862 3.35625 34.8116C4.35523 35.7786 5.56474 36.5264 6.9 37.0025C8.17625 37.4716 9.62625 37.7922 11.755 37.886C13.8888 37.981 14.5675 38 20 38C25.4338 38 26.1125 37.9762 28.245 37.886C30.3738 37.791 31.825 37.4704 33.1 37.0025C34.4346 36.525 35.6438 35.7774 36.6437 34.8116C37.662 33.8628 38.4492 32.7137 38.95 31.445C39.4437 30.2337 39.7812 28.8551 39.88 26.8328C39.98 24.8057 40 24.1609 40 19C40 13.8379 39.975 13.1931 39.88 11.1673C39.78 9.14494 39.4425 7.76506 38.95 6.555C38.4478 5.28699 37.6608 4.13815 36.6437 3.18844C35.6455 2.22055 34.4358 1.47263 33.1 0.9975C31.825 0.52725 30.3738 0.207813 28.245 0.114C26.1112 0.019 25.4325 0 20 0ZM20 3.42C25.3375 3.42 25.975 3.44494 28.0837 3.53281C30.0337 3.6195 31.0913 3.92706 31.795 4.1895C32.7325 4.53387 33.395 4.94475 34.0987 5.60856C34.7962 6.27356 35.23 6.90531 35.5912 7.79475C35.865 8.46331 36.1912 9.46913 36.28 11.3216C36.375 13.3249 36.3963 13.927 36.3963 19C36.3963 24.073 36.3713 24.6762 36.2738 26.6796C36.1712 28.5321 35.8463 29.5367 35.5713 30.2053C35.1987 31.0959 34.7738 31.7252 34.0737 32.3938C33.4272 33.0226 32.6416 33.5069 31.7738 33.8117C31.0738 34.0718 29.9987 34.3817 28.0487 34.466C25.925 34.5563 25.3 34.5764 19.95 34.5764C14.5988 34.5764 13.9738 34.5527 11.8512 34.4601C9.9 34.3627 8.825 34.0539 8.125 33.7927C7.17625 33.4388 6.525 33.0351 5.82625 32.3701C5.15723 31.7601 4.64412 31.0126 4.32625 30.1851C4.05125 29.5201 3.72875 28.4988 3.62625 26.6463C3.55125 24.6513 3.525 24.035 3.525 18.9762C3.525 13.9163 3.55125 13.2988 3.62625 11.2801C3.72875 9.42756 4.05125 8.4075 4.32625 7.7425C4.67625 6.84 5.125 6.2225 5.82625 5.55631C6.525 4.8925 7.17625 4.465 8.125 4.1325C8.825 3.87125 9.87625 3.5625 11.8263 3.4675C13.9513 3.39625 14.5763 3.3725 19.925 3.3725L20 3.42ZM20 9.2435C18.6513 9.24334 17.3157 9.4956 16.0696 9.98585C14.8236 10.4761 13.6913 11.1948 12.7376 12.1008C11.784 13.0068 11.0275 14.0824 10.5114 15.2662C9.99537 16.4499 9.72984 17.7187 9.73 19C9.73 24.3913 14.33 28.7565 20 28.7565C25.675 28.7565 30.27 24.3865 30.27 19C30.27 13.6088 25.67 9.2435 20 9.2435ZM20 25.3341C19.1244 25.3343 18.2574 25.1705 17.4485 24.8523C16.6395 24.534 15.9045 24.0674 15.2854 23.4792C14.6664 22.891 14.1754 22.1926 13.8405 21.4241C13.5056 20.6555 13.3334 19.8318 13.3337 19C13.3336 18.1683 13.5059 17.3447 13.8409 16.5763C14.1758 15.8079 14.6668 15.1097 15.2859 14.5216C15.9049 13.9335 16.6399 13.467 17.4487 13.1488C18.2576 12.8306 19.1245 12.6669 20 12.6671C20.8755 12.6669 21.7424 12.8306 22.5513 13.1488C23.3601 13.467 24.0951 13.9335 24.7141 14.5216C25.3332 15.1097 25.8242 15.8079 26.1591 16.5763C26.4941 17.3447 26.6664 18.1683 26.6663 19C26.6664 19.8317 26.4941 20.6553 26.1591 21.4237C25.8242 22.1921 25.3332 22.8903 24.7141 23.4784C24.0951 24.0665 23.3601 24.533 22.5513 24.8512C21.7424 25.1694 20.8755 25.3331 20 25.3329V25.3341ZM33.0763 8.85875C33.0763 10.1175 32 11.1388 30.6763 11.1388C29.3512 11.1388 28.2763 10.1163 28.2763 8.85875C28.2964 8.26679 28.558 7.70547 29.0059 7.29349C29.4538 6.88151 30.0528 6.65116 30.6763 6.65116C31.2997 6.65116 31.8987 6.88151 32.3466 7.29349C32.7945 7.70547 33.0561 8.26679 33.0763 8.85875Z" fill="white"/>
</svg>
